<?xml version="1.0" encoding="UTF-8" standalone="no" ?>
<!DOCTYPE svg PUBLIC "-//W3C//DTD SVG 1.1//EN" "http://www.w3.org/Graphics/SVG/1.1/DTD/svg11.dtd">
<svg xmlns="http://www.w3.org/2000/svg" xmlns:xlink="http://www.w3.org/1999/xlink" version="1.1" width="125" height="100" viewBox="-7.64 -3.47 125 100" xml:space="preserve">
<desc>Created with Fabric.js 4.2.0</desc>
<defs>
</defs>
<rect x="0" y="0" width="100%" height="100%" fill="transparent"></rect>
<g transform="matrix(Infinity NaN NaN Infinity 0 0)" id="c3a2f9bb-1751-4c60-a266-caaeb4ce9ed9"  >
</g>
<g transform="matrix(1 0 0 1 62.5 50)" id="ebcd8199-697e-4270-a071-03d9e2699887"  >
<rect style="stroke: none; stroke-width: 1; stroke-dasharray: none; stroke-linecap: butt; stroke-dashoffset: 0; stroke-linejoin: miter; stroke-miterlimit: 4; fill: rgb(255,255,255); fill-opacity: 0; fill-rule: nonzero; opacity: 1;" vector-effect="non-scaling-stroke"  x="-62.5" y="-50" rx="0" ry="0" width="125" height="100" />
</g>
<g transform="matrix(0.98 0 0 0.98 54.5 47)" id="Path_17221"  >
<path style="stroke: none; stroke-width: 1; stroke-dasharray: none; stroke-linecap: butt; stroke-dashoffset: 0; stroke-linejoin: miter; stroke-miterlimit: 4; fill: rgb(255,255,255); fill-rule: nonzero; opacity: 1;" vector-effect="non-scaling-stroke"  transform=" translate(-114.97, -66.63)" d="M 131.507 47.72 C 131.507 46.8447855835295 131.15932242679412 46.0054176709629 130.5404523779156 45.386547622084386 C 129.92158232903708 44.76767757320587 129.0822144164705 44.419999999999995 128.207 44.42 L 118.81299999999999 44.42 C 118.23310101267765 44.42 117.76299999999999 44.89010101267767 117.76299999999999 45.47 C 117.76299999999999 46.04989898732234 118.23310101267765 46.52 118.81299999999999 46.52 L 128.207 46.52 C 128.86974169979695 46.52000000000001 129.40699999999998 47.05725830020306 129.40699999999998 47.720000000000006 L 129.40699999999998 80.476 L 124.2 80.476 C 123.62088179837205 80.4765512790053 123.1515512790053 80.94588179837206 123.151 81.525 L 123.151 86.732 L 101.731 86.732 C 101.41274021219255 86.732 101.10751551671378 86.6055717915615 100.88247186257614 86.38052813742385 C 100.65742820843849 86.15548448328622 100.53099999999999 85.85025978780745 100.53099999999999 85.532 L 100.53099999999999 47.72 C 100.53099999999999 47.40174021219254 100.65742820843849 47.09651551671378 100.88247186257614 46.871471862576136 C 101.10751551671378 46.64642820843849 101.41274021219255 46.519999999999996 101.731 46.519999999999996 L 111.33099999999999 46.519999999999996 C 111.91089898732233 46.519999999999996 112.38099999999999 46.04989898732233 112.38099999999999 45.47 C 112.38099999999999 44.89010101267766 111.91089898732233 44.419999999999995 111.33099999999999 44.419999999999995 L 101.731 44.419999999999995 C 99.90846032555838 44.419999999999995 98.431 45.89746032555838 98.431 47.71999999999999 L 98.431 85.533 C 98.431 87.35553967444162 99.90846032555838 88.833 101.731 88.833 L 128.208 88.833 C 129.0832144164705 88.833 129.92258232903708 88.48532242679413 130.54145237791562 87.8664523779156 C 131.16032242679412 87.2475823290371 131.508 86.4082144164705 131.508 85.533 Z M 125.251 82.57499999999999 L 127.924 82.57499999999999 L 125.251 85.24799999999999 Z M 128.21 86.73199999999999 L 126.736 86.73199999999999 L 129.409 84.05899999999998 L 129.409 85.53299999999999 C 129.4084480405235 86.19535114185882 128.87135137184197 86.73200022998314 128.209 86.732 Z" stroke-linecap="round" />
</g>
<g transform="matrix(0.98 0 0 0.98 54.5 39.87)" id="Path_17222"  >
<path style="stroke: none; stroke-width: 1; stroke-dasharray: none; stroke-linecap: butt; stroke-dashoffset: 0; stroke-linejoin: miter; stroke-miterlimit: 4; fill: rgb(255,255,255); fill-rule: nonzero; opacity: 1;" vector-effect="non-scaling-stroke"  transform=" translate(-170.11, -135.91)" d="M 166.554 130.5 L 163.762 135.492 L 161.082 135.492 C 160.50210101267766 135.492 160.03199999999998 135.96210101267766 160.03199999999998 136.54199999999997 C 160.03199999999998 137.1218989873223 160.50210101267766 137.59199999999998 161.082 137.59199999999998 L 164.382 137.59199999999998 C 164.76201135580794 137.59194567542883 165.11233731100543 137.3865689964539 165.298 137.05499999999998 L 167.085 133.85999999999999 L 168.83100000000002 141.05999999999997 C 168.9282481860689 141.46415236513815 169.25497058689072 141.77275497874334 169.66400862138687 141.84681056783688 C 170.07304665588305 141.9208661569304 170.48722728932378 141.74640268452046 170.72000000000003 141.402 L 173.65400000000002 137.07399999999998 L 174.29000000000002 138.32 C 174.4673701181035 138.66746199598938 174.82290730003544 138.88779489746832 175.21300000000002 138.892 L 179.11900000000003 138.93699999999998 C 179.69889898732237 138.94362741699794 180.17437258300205 138.4788989873223 180.181 137.899 C 180.187627416998 137.31910101267766 179.72289898732237 136.84362741699795 179.14300000000003 136.837 L 175.87100000000004 136.79899999999998 L 174.71600000000004 134.53799999999998 C 174.5464545592247 134.20940410030178 174.2165717264639 133.99420675531786 173.8475148580135 133.97144824843008 C 173.4784579895631 133.94868974154232 173.12463413551606 134.1217251741731 172.91600000000003 134.427 L 170.31600000000003 138.262 L 168.49800000000002 130.762 C 168.39586895092793 130.34280975018626 168.04770465432762 130.0287622979543 167.62023816489176 129.9702506142247 C 167.19277167545593 129.91173893049512 166.7730214293431 130.12067411319248 166.562 130.497 Z" stroke-linecap="round" />
</g>
<g transform="matrix(0.98 0 0 0.98 54.5 25.73)" id="Path_17223"  >
<path style="stroke: none; stroke-width: 1; stroke-dasharray: none; stroke-linecap: butt; stroke-dashoffset: 0; stroke-linejoin: miter; stroke-miterlimit: 4; fill: rgb(0,172,177); fill-rule: nonzero; opacity: 1;" vector-effect="non-scaling-stroke"  transform=" translate(-180.23, -14.11)" d="M 171.35 10 L 171.35 11.7 C 171.35 15.30255342314626 174.27044657685371 18.222999999999995 177.873 18.223 L 182.594 18.223 C 186.19655342314627 18.222999999999995 189.117 15.302553423146263 189.117 11.699999999999996 L 189.117 10 Z" stroke-linecap="round" />
</g>
<g transform="matrix(0.98 0 0 0.98 54.5 46)" id="Path_17224"  >
<path style="stroke: none; stroke-width: 0; stroke-dasharray: none; stroke-linecap: butt; stroke-dashoffset: 0; stroke-linejoin: miter; stroke-miterlimit: 4; fill: rgb(255,255,255); fill-rule: nonzero; opacity: 1;" vector-effect="non-scaling-stroke"  transform=" translate(-75.19, -26.87)" d="M 91.04 53.733 L 59.34 53.733 C 56.38609503179098 53.729693386854564 53.99230661314543 51.33590496820902 53.989000000000004 48.382 L 53.989000000000004 5.351 C 53.99230661314543 2.397095031790977 56.38609503179098 0.0033066131454306813 59.34 -8.881784197001252e-16 L 91.04 0 C 93.99390496820902 0.0033066131454303374 96.38769338685458 2.397095031790978 96.391 5.351000000000001 L 96.391 48.382 C 96.38769338685458 51.33590496820902 93.99390496820902 53.729693386854564 91.04 53.733 Z M 59.34 2.1 C 57.54465552181514 2.101653934242819 56.08965393424282 3.5566555218151357 56.088 5.352000000000002 L 56.088 48.382 C 56.08965393424282 50.177344478184864 57.54465552181514 51.63234606575718 59.34 51.634 L 91.04 51.634 C 92.83534447818487 51.632346065757176 94.29034606575718 50.177344478184864 94.292 48.382 L 94.292 5.351 C 94.28979497888177 3.556046058411198 92.83495453485398 2.101652982293624 91.04 2.1000000000000005 Z" stroke-linecap="round" />
</g>
<g transform="matrix(0.98 0 0 0.98 54.5 54.02)" id="Path_17225"  >
<path style="stroke: none; stroke-width: 1; stroke-dasharray: none; stroke-linecap: butt; stroke-dashoffset: 0; stroke-linejoin: miter; stroke-miterlimit: 4; fill: rgb(0,172,177); fill-rule: nonzero; opacity: 1;" vector-effect="non-scaling-stroke"  transform=" translate(-199.65, -278.91)" d="M 202.548 273.595 C 201.39188241935565 273.51851413003135 200.29570823655976 274.11706498135544 199.735 275.13100000000003 C 199.71851461968294 275.1660702011873 199.68325160352185 275.1884588434572 199.6445 275.1884588434572 C 199.60574839647816 275.1884588434572 199.57048538031708 275.1660702011873 199.554 275.13100000000003 C 198.9962282684875 274.1171191262619 197.90162440811 273.51814815029473 196.747 273.595 C 195.73784531728327 273.55793847989787 194.7599508644384 273.9486866026011 194.0542213938787 274.67098338668984 C 193.34849192331902 275.39328017077855 192.98053609571204 276.37997676306566 193.04100000000003 277.38800000000003 C 193.02345526287252 278.3720824199658 193.28898638234307 279.3404900321526 193.806 280.17800000000005 C 194.952 282.11000000000007 198.728 283.70300000000003 199.506 284.19700000000006 C 199.59143552568202 284.2513002288807 199.70056447431799 284.2513002288807 199.786 284.19700000000006 C 200.562 283.7060000000001 204.339 282.12500000000006 205.494 280.1770000000001 C 206.01076693644444 279.33942890576657 206.27595749239032 278.3709974252837 206.258 277.38700000000006 C 206.3176230576199 276.37859013439777 205.94879893496739 275.3918637035015 205.24234998387442 274.6698005168318 C 204.53590103278145 273.9477373301621 203.5574721910116 273.5574332378537 202.548 273.595 Z" stroke-linecap="round" />
</g>
</svg>