<?xml version="1.0" encoding="UTF-8" standalone="no" ?>
<!DOCTYPE svg PUBLIC "-//W3C//DTD SVG 1.1//EN" "http://www.w3.org/Graphics/SVG/1.1/DTD/svg11.dtd">
<svg xmlns="http://www.w3.org/2000/svg" xmlns:xlink="http://www.w3.org/1999/xlink" version="1.1" width="125" height="100" viewBox="-7.64 -3.47 125 100" xml:space="preserve">
<desc>Created with Fabric.js 4.2.0</desc>
<defs>
</defs>
<rect x="0" y="0" width="100%" height="100%" fill="transparent"></rect>
<g transform="matrix(Infinity NaN NaN Infinity 0 0)" id="c3a2f9bb-1751-4c60-a266-caaeb4ce9ed9"  >
</g>
<g transform="matrix(1 0 0 1 62.5 50)" id="ebcd8199-697e-4270-a071-03d9e2699887"  >
<rect style="stroke: none; stroke-width: 1; stroke-dasharray: none; stroke-linecap: butt; stroke-dashoffset: 0; stroke-linejoin: miter; stroke-miterlimit: 4; fill: rgb(255,255,255); fill-opacity: 0; fill-rule: nonzero; opacity: 1;" vector-effect="non-scaling-stroke"  x="-62.5" y="-50" rx="0" ry="0" width="125" height="100" />
</g>
<g transform="matrix(0.82 0 0 0.82 55.25 46.59)"  >
<g style="" vector-effect="non-scaling-stroke"   >
		<g transform="matrix(1 0 0 1 4.55 -14.07)" id="Path_17122"  >
<path style="stroke: none; stroke-width: 1; stroke-dasharray: none; stroke-linecap: butt; stroke-dashoffset: 0; stroke-linejoin: miter; stroke-miterlimit: 4; fill: rgb(0,172,177); fill-rule: nonzero; opacity: 1;" vector-effect="non-scaling-stroke"  transform=" translate(-238.82, -94.35)" d="M 246.58 91.468 L 241.69500000000002 91.468 L 241.69500000000002 86.583 L 235.94000000000003 86.583 L 235.94000000000003 91.468 L 231.05500000000004 91.468 L 231.05500000000004 97.223 L 235.94000000000003 97.223 L 235.94000000000003 102.108 L 241.69500000000002 102.108 L 241.69500000000002 97.223 L 246.58 97.223 Z" stroke-linecap="round" />
</g>
		<g transform="matrix(1 0 0 1 4.54 -14.07)" id="Path_17123"  >
<path style="stroke: none; stroke-width: 1; stroke-dasharray: none; stroke-linecap: butt; stroke-dashoffset: 0; stroke-linejoin: miter; stroke-miterlimit: 4; fill: rgb(255,255,255); fill-rule: nonzero; opacity: 1;" vector-effect="non-scaling-stroke"  transform=" translate(-175.78, -31.31)" d="M 175.78 48.4 C 185.2170512479737 48.39944767346557 192.8669999206599 40.749051225131105 192.86699988295538 31.31199996099426 C 192.86699984525086 21.874948696857416 185.21705111143234 14.224552309651699 175.7799998634542 14.224000058526308 C 166.3429486154761 14.223447807400916 158.69210453995342 21.872948800502435 158.691 31.309999999999995 C 158.70092012207596 40.744043923126085 166.3459566735058 48.38952784049611 175.78 48.4 Z M 175.78 16.799999999999997 C 181.6492426330191 16.80000001393661 186.94054305442114 20.335599868499017 189.1865115405723 25.758111707533093 C 191.43248002672343 31.18062354656717 190.1907971655925 37.42214180364894 186.04047289567677 41.5721800612795 C 181.89014862576104 45.722218318910066 175.64854481216568 46.96347103903723 170.22618776830276 44.7171288624935 C 164.80383072443988 42.470786685949776 161.26859553148418 37.179242619082444 161.269 31.30999999999998 C 161.27836891924167 23.299841879446788 167.76984125280356 16.808816894264325 175.78 16.8 Z" stroke-linecap="round" />
</g>
		<g transform="matrix(1 0 0 1 0 12.09)" id="Path_17124"  >
<path style="stroke: none; stroke-width: 1; stroke-dasharray: none; stroke-linecap: butt; stroke-dashoffset: 0; stroke-linejoin: miter; stroke-miterlimit: 4; fill: rgb(255,255,255); fill-rule: nonzero; opacity: 1;" vector-effect="non-scaling-stroke"  transform=" translate(-32.99, -220.93)" d="M 64.7 210.352 C 60.48536188481452 210.35695937535624 57.06995937535626 213.7723618848145 57.065000000000005 217.987 L 57.065000000000005 219.73999999999998 L 26.1 219.73999999999998 L 26.1 217.28499999999997 C 26.09669316764505 214.23665439692152 23.626345603078445 211.76630683235493 20.578000000000003 211.76299999999998 L 8.924 211.76299999999998 L 8.924 209.5 C 8.919040624643747 205.2853618848145 5.503638115185482 201.86995937535625 1.288999999999998 201.865 C 0.5778852751917928 201.86499914401907 0.0011033587656852362 202.4408861311722 0 203.152 L 0 238.71 C -0.0002653509596681796 239.05203728406605 0.1354224651617301 239.3801564392269 0.3771856233962785 239.62210715615674 C 0.6189487816308269 239.86405787308658 0.9469626130049573 240.00000010292902 1.2890000000000004 240 L 7.635 240 C 8.346895042531887 240 8.923999999999992 239.4228950425319 8.924 238.711 L 8.924 233.643 L 57.061 233.643 L 57.061 238.711 C 57.06099978588751 239.42250470102593 57.63749551308654 239.99944801807527 58.349 240 L 64.7 240 C 65.4118950425319 240 65.98899999999999 239.4228950425319 65.989 238.711 L 65.989 211.641 C 65.98899999999999 210.9291049574681 65.4118950425319 210.352 64.7 210.352 Z M 20.578000000000003 214.341 C 22.203012746063663 214.34320341015027 23.519796589849744 215.65998725393635 23.522000000000002 217.285 L 23.522000000000002 219.74 L 8.924 219.74 L 8.924 214.34 Z M 6.347 237.421 L 2.578 237.421 L 2.578 204.607 C 4.798057109361224 205.1953363859833 6.344766657803172 207.20330927548355 6.3469999999999995 209.5 Z M 8.925 231.064 L 8.925 222.31799999999998 L 57.061 222.31799999999998 L 57.061 231.064 Z M 63.408 237.421 L 59.638 237.421 L 59.638 217.987 C 59.641139136667235 215.69105335149766 61.187660832963616 213.6841449894426 63.407 213.096 Z" stroke-linecap="round" />
</g>
</g>
</g>
</svg>