<?xml version="1.0" encoding="UTF-8" standalone="no" ?>
<!DOCTYPE svg PUBLIC "-//W3C//DTD SVG 1.1//EN" "http://www.w3.org/Graphics/SVG/1.1/DTD/svg11.dtd">
<svg xmlns="http://www.w3.org/2000/svg" xmlns:xlink="http://www.w3.org/1999/xlink" version="1.1" width="125" height="100" viewBox="-7.64 -3.47 125 100" xml:space="preserve">
<desc>Created with Fabric.js 4.2.0</desc>
<defs>
</defs>
<rect x="0" y="0" width="100%" height="100%" fill="transparent"></rect>
<g transform="matrix(Infinity NaN NaN Infinity 0 0)" id="c3a2f9bb-1751-4c60-a266-caaeb4ce9ed9"  >
</g>
<g transform="matrix(1 0 0 1 62.5 50)" id="ebcd8199-697e-4270-a071-03d9e2699887"  >
<rect style="stroke: none; stroke-width: 1; stroke-dasharray: none; stroke-linecap: butt; stroke-dashoffset: 0; stroke-linejoin: miter; stroke-miterlimit: 4; fill: rgb(255,255,255); fill-opacity: 0; fill-rule: nonzero; opacity: 1;" vector-effect="non-scaling-stroke"  x="-62.5" y="-50" rx="0" ry="0" width="125" height="100" />
</g>
<g transform="matrix(0.83 0 0 0.83 54.66 46.61)"  >
<g style="" vector-effect="non-scaling-stroke"   >
		<g transform="matrix(1 0 0 1 15.91 9.73)" id="Path_17198"  >
<path style="stroke: none; stroke-width: 1; stroke-dasharray: none; stroke-linecap: butt; stroke-dashoffset: 0; stroke-linejoin: miter; stroke-miterlimit: 4; fill: rgb(0,172,177); fill-rule: nonzero; opacity: 1;" vector-effect="non-scaling-stroke"  transform=" translate(-326.93, -278.96)" d="M 334.694 276.085 L 329.809 276.085 L 329.809 271.2 L 324.05400000000003 271.2 L 324.05400000000003 276.085 L 319.16900000000004 276.085 L 319.16900000000004 281.84 L 324.05400000000003 281.84 L 324.05400000000003 286.72499999999997 L 329.809 286.72499999999997 L 329.809 281.84 L 334.694 281.84 Z" stroke-linecap="round" />
</g>
		<g transform="matrix(1 0 0 1 0 0)" id="Path_17199"  >
<path style="stroke: none; stroke-width: 1; stroke-dasharray: none; stroke-linecap: butt; stroke-dashoffset: 0; stroke-linejoin: miter; stroke-miterlimit: 4; fill: rgb(255,255,255); fill-rule: nonzero; opacity: 1;" vector-effect="non-scaling-stroke"  transform=" translate(-32.99, -74.77)" d="M 51.383 67.592 C 51.638173448004274 66.20034167386743 51.7623830317739 64.78783430479994 51.754000000000005 63.373 C 51.908921869730804 59.09657661365596 50.25583555187329 54.95260792576371 47.2 51.957 C 44.327594718482906 49.329145573029066 40.557547754323565 47.90164511360509 36.664999999999985 47.968 C 30.731000000000005 47.968 27.511000000000006 50.768 25.865000000000006 53.076 C 24.222000000000005 50.763 21.008000000000006 47.968 15.081000000000005 47.968 C 11.189849434734189 47.90108998419579 7.421164429092424 49.328752328688196 4.551 51.95700000000001 C 1.4970043083039721 54.95361831206268 -0.15483068599033434 59.097179791927275 0 63.373 C -0.05808839996844476 67.2653805717045 0.9921027426767841 71.09400013037713 3.0279999999999987 74.412 C 6.59 80.418 16.4 85.477 21.667 88.194 C 23.023000000000003 88.894 24.093000000000004 89.44500000000001 24.647000000000002 89.794 C 25.387443347181716 90.26127197851861 26.330556652818288 90.26127197851861 27.071 89.794 C 27.622 89.445 28.685000000000002 88.89999999999999 30.031000000000002 88.21 C 30.647000000000002 87.89399999999999 31.313000000000002 87.553 32.02 87.184 C 33.40176490313327 95.84217510075982 41.11180501365698 102.04993639670685 49.865410724288026 101.55228452465576 C 58.61901643491906 101.05463265260468 65.5758168912268 94.0130457416549 65.96739718480887 85.25405406471934 C 66.35897747839098 76.49506238778378 60.05827759651358 68.86078443817698 51.38399999999999 67.584 Z M 28.855 85.924 C 27.567 86.584 26.527 87.11800000000001 25.862000000000002 87.519 C 25.194000000000003 87.114 24.147000000000002 86.57300000000001 22.848000000000003 85.90400000000001 C 17.809 83.3 8.43 78.467 5.244 73.1 C 3.4387577883270186 70.18242167711752 2.5127926897136406 66.80631195873866 2.5769999999999946 63.37599999999999 C 2.577 54.514999999999986 8.855 50.54899999999999 15.077 50.54899999999999 C 20.831 50.54899999999999 23.377000000000002 53.70299999999999 24.387999999999998 55.58399999999999 C 24.678678699186893 56.12588612605474 25.24407388016114 56.46373953467225 25.858999999999998 56.46299999999999 L 25.858999999999998 56.46299999999999 C 26.474069935698058 56.46430625571146 27.039884846184894 56.12681611209228 27.331 55.58499999999999 C 28.342 53.703999999999986 30.899 50.54799999999999 36.663 50.54799999999999 C 42.891 50.54799999999999 49.17399999999999 54.51399999999999 49.17399999999999 63.374999999999986 C 49.184268469989384 64.73096290488115 49.0552584011388 66.08439580900453 48.78899999999999 67.414 C 39.440991695401564 67.48312405021024 31.879326300055936 75.04300823940892 31.808 84.39100000000002 C 30.739 84.957 29.745 85.467 28.855 85.924 Z M 48.9 99.01 C 43.030393630881164 99.01161796046755 37.73786568428032 95.47704410971156 35.49063680122141 90.05466051083715 C 33.2434079181625 84.63227691196275 34.48410324670236 78.39010265344206 38.63411274452827 74.2392349472689 C 42.78412224235418 70.08836724109574 49.02603982223563 68.84638121139741 54.448887976698444 71.09248883122237 C 59.871736131161256 73.33859645104731 63.40740427060153 78.63039342180741 63.407 84.5 C 63.39763563552005 92.50859873583904 56.90859662831144 98.99897965502267 48.9 99.01 Z" stroke-linecap="round" />
</g>
</g>
</g>
</svg>