<?xml version="1.0" encoding="UTF-8" standalone="no" ?>
<!DOCTYPE svg PUBLIC "-//W3C//DTD SVG 1.1//EN" "http://www.w3.org/Graphics/SVG/1.1/DTD/svg11.dtd">
<svg xmlns="http://www.w3.org/2000/svg" xmlns:xlink="http://www.w3.org/1999/xlink" version="1.1" width="125" height="100" viewBox="-7.64 -3.47 125 100" xml:space="preserve">
<desc>Created with Fabric.js 4.2.0</desc>
<defs>
</defs>
<g transform="matrix(Infinity NaN NaN Infinity 0 0)" id="c3a2f9bb-1751-4c60-a266-caaeb4ce9ed9"  >
</g>
<g transform="matrix(1 0 0 1 62.5 50)" id="ebcd8199-697e-4270-a071-03d9e2699887"  >
<rect style="stroke: none; stroke-width: 1; stroke-dasharray: none; stroke-linecap: butt; stroke-dashoffset: 0; stroke-linejoin: miter; stroke-miterlimit: 4; fill: rgb(255,255,255); fill-opacity: 0; fill-rule: nonzero; opacity: 1;" vector-effect="non-scaling-stroke"  x="-62.5" y="-50" rx="0" ry="0" width="125" height="100" />
</g>
<g transform="matrix(1.23 0 0 1.23 54.82 47.42)" id="Path_17250"  >
<path style="stroke: none; stroke-width: 1; stroke-dasharray: none; stroke-linecap: butt; stroke-dashoffset: 0; stroke-linejoin: miter; stroke-miterlimit: 4; fill: rgb(255,255,255); fill-rule: nonzero; opacity: 1;" vector-effect="non-scaling-stroke"  transform=" translate(-26.97, -106.15)" d="M 53.714 110.948 L 51.4 108.041 C 51.200746058000526 107.78893330746054 50.8973088068373 107.64163367097353 50.576 107.64099999999999 L 49.76 107.64099999999999 L 41.927 97.8 C 41.727651474613936 97.5480510404956 41.42427480931047 97.40078081462012 41.103 97.39999999999999 L 38.694 97.39999999999999 L 38.694 94.99999999999999 C 38.694006146007055 92.99705897386094 37.07293488014142 91.37196186875889 35.07 91.36699999999999 L 24.779 91.36699999999999 L 24.779 90.9 C 24.738686360998745 87.92900514412001 22.31876835259876 85.54170040705455 19.3475 85.54170040705455 C 16.37623164740124 85.54170040705455 13.956313639001255 87.92900514412001 13.916 90.9 L 13.916 91.38000000000001 L 3.624 91.38000000000001 C 1.6226253799525758 91.38495679720003 0.0021974188931195293 93.00762044805123 0 95.009 L 0 121.479 C -4.623260046599343e-16 121.75853818029088 0.11104610974514995 122.02662720448639 0.30870945262937854 122.22429054737063 C 0.5063727955136071 122.42195389025485 0.7744618197091206 122.533 1.0540000000000003 122.533 L 3.4 122.533 C 3.8906202115204414 124.98429682854295 6.043087134803078 126.7486429190995 8.543 126.7486429190995 C 11.042912865196922 126.7486429190995 13.195379788479558 124.98429682854295 13.686 122.533 L 40.065 122.533 C 40.555620211520434 124.98429682854295 42.70808713480307 126.74864291909951 45.208 126.74864291909951 C 47.707912865196924 126.74864291909951 49.86037978847956 124.98429682854295 50.351 122.533 L 52.89 122.533 C 53.16953818029088 122.533 53.4376272044864 122.42195389025485 53.63529054737062 122.22429054737063 C 53.83295389025485 122.02662720448639 53.944 121.75853818029088 53.944 121.479 L 53.944 111.6 C 53.94282218103479 111.3629882783649 53.86179409089186 111.13329125761189 53.714 110.948 Z M 40.594 99.515 L 47.066 107.644 L 38.694 107.644 L 38.694 99.515 Z M 16.022 90.9 C 16.053455278098486 89.08640475227958 17.532631990172824 87.63266064515766 19.3465 87.63266064515766 C 21.160368009827174 87.63266064515766 22.639544721901512 89.08640475227958 22.671 90.9 L 22.671 91.38000000000001 L 16.022 91.38000000000001 L 16.022 90.9 Z M 2.107 95.009 C 2.105338929839122 94.16903753616711 2.7840424055842825 93.4863074742112 3.6239999999999988 93.483 L 35.07 93.483 C 35.909957594415715 93.4863074742112 36.58866107016088 94.16903753616711 36.587 95.009 L 36.587 120.425 L 13.687000000000005 120.425 C 13.196379788479563 117.97370317145705 11.043912865196926 116.2093570809005 8.544000000000004 116.2093570809005 C 6.044087134803084 116.2093570809005 3.8916202115204452 117.97370317145705 3.401000000000005 120.425 L 2.107 120.425 Z M 8.544 124.639 C 7.263705968166428 124.64710072520498 6.104966669903941 123.88210511300377 5.609396070253929 122.70158479955718 C 5.113825470603918 121.52106448611059 5.379308208109869 120.15819473293851 6.281753248381003 119.25000346509482 C 7.184198288652137 118.34181219725112 8.5453555364756 118.06768449941195 9.728997520198417 118.5557522037996 C 10.912639503921232 119.04381990818726 11.684974372647822 120.19768034107072 11.685 121.478 C 11.688877072191456 123.21773617706215 10.28372338803935 124.63228439396408 8.544 124.64 Z M 45.208 124.639 C 43.92770596816643 124.64710072520498 42.76896666990394 123.88210511300377 42.27339607025392 122.70158479955718 C 41.777825470603915 121.52106448611059 42.04330820810986 120.15819473293851 42.945753248380996 119.25000346509482 C 43.848198288652135 118.34181219725112 45.2093555364756 118.06768449941195 46.39299752019841 118.5557522037996 C 47.57663950392123 119.04381990818726 48.34897437264782 120.19768034107072 48.349 121.478 C 48.352877072191454 123.21773617706215 46.94772338803935 124.63228439396408 45.208 124.64 Z M 51.836 120.425 L 50.351 120.425 C 49.86037978847956 117.97370317145705 47.707912865196924 116.20935708090049 45.208 116.20935708090049 C 42.70808713480307 116.20935708090049 40.555620211520434 117.97370317145705 40.065 120.425 L 38.694 120.425 L 38.694 109.751 L 50.065 109.751 L 51.836 111.974 Z" stroke-linecap="round" />
</g>
<g transform="matrix(1.23 0 0 1.23 45.42 17.44)" id="Path_17251"  >
<path style="stroke: none; stroke-width: 1; stroke-dasharray: none; stroke-linecap: butt; stroke-dashoffset: 0; stroke-linejoin: miter; stroke-miterlimit: 4; fill: rgb(255,255,255); fill-rule: nonzero; opacity: 1;" vector-effect="non-scaling-stroke"  transform=" translate(-174.68, -36.41)" d="M 174.683 38.086 C 174.96253818029086 38.086 175.23062720448638 37.974953890254845 175.4282905473706 37.77729054737062 C 175.62595389025483 37.57962720448639 175.737 37.311538180290874 175.737 37.032 L 175.737 35.758 C 175.71946125938945 35.188800970063404 175.2529691766048 34.736461515676275 174.68349999999998 34.736461515676275 C 174.11403082339518 34.736461515676275 173.64753874061054 35.188800970063404 173.63 35.758 L 173.63 37.033 C 173.630551282818 37.61432733962997 174.10167266037 38.08544871718198 174.683 38.086 Z" stroke-linecap="round" />
</g>
<g transform="matrix(1.23 0 0 1.23 53.92 21.47)" id="Path_17252"  >
<path style="stroke: none; stroke-width: 1; stroke-dasharray: none; stroke-linecap: butt; stroke-dashoffset: 0; stroke-linejoin: miter; stroke-miterlimit: 4; fill: rgb(255,255,255); fill-rule: nonzero; opacity: 1;" vector-effect="non-scaling-stroke"  transform=" translate(-235.26, -68.11)" d="M 233.966 69.478 C 234.38865105115227 69.87745319436983 235.05497079115733 69.8591059080433 235.455 69.437 L 236.57500000000002 68.25399999999999 C 236.84537628063117 67.98260906577868 236.94721171252235 67.58588507723003 236.8409775328622 67.217821670495 C 236.7347433532021 66.84975826375997 236.43716873622682 66.56831603947506 236.06376118492082 66.48274050013632 C 235.69035363361485 66.39716496079758 235.2999153151044 66.52093207160314 235.044 66.806 L 233.924 67.989 C 233.52481207326116 68.41192274020482 233.5436071078626 69.07825146690922 233.966 69.478 Z" stroke-linecap="round" />
</g>
<g transform="matrix(1.23 0 0 1.23 36.93 21.49)" id="Path_17253"  >
<path style="stroke: none; stroke-width: 1; stroke-dasharray: none; stroke-linecap: butt; stroke-dashoffset: 0; stroke-linejoin: miter; stroke-miterlimit: 4; fill: rgb(255,255,255); fill-rule: nonzero; opacity: 1;" vector-effect="non-scaling-stroke"  transform=" translate(-104.61, -68.12)" d="M 104.4 69.436 C 104.80331325330012 69.84082678562427 105.45576178290864 69.85052528251664 105.87092949710897 69.45786502767531 C 106.28609721130931 69.06520477283397 106.31274220779699 68.41322840148877 105.93100000000001 67.98800000000001 L 104.811 66.805 C 104.4076867466999 66.40017321437574 103.75523821709137 66.39047471748337 103.34007050289104 66.7831349723247 C 102.9249027886907 67.17579522716603 102.89825779220303 67.82777159851125 103.28 68.253 Z" stroke-linecap="round" />
</g>
<g transform="matrix(1.23 0 0 1.23 45.36 46.32)" id="Path_17254"  >
<path style="stroke: none; stroke-width: 1; stroke-dasharray: none; stroke-linecap: butt; stroke-dashoffset: 0; stroke-linejoin: miter; stroke-miterlimit: 4; fill: rgb(0,172,177); fill-rule: nonzero; opacity: 1;" vector-effect="non-scaling-stroke"  transform=" translate(-100.61, -222.56)" d="M 90.9 216.592 L 110.325 216.592 L 110.325 228.52800000000002 L 90.9 228.52800000000002 Z" stroke-linecap="round" />
</g>
</svg>